<svg xmlns="http://www.w3.org/2000/svg" width="83.54" height="89.086" viewBox="0 0 83.54 89.086">
  <g id="SBlife-quali" transform="translate(-118.546 387)">
    <path id="linha2" d="M129-329.23v41.77h83.54V-371H129Zm82.847,0v41.077l-40.973-.069-41.008-.1-.1-40.557c-.035-22.324,0-40.765.1-41.008.1-.312,8.666-.416,41.077-.416h40.9Z" transform="translate(-10.454 -10.454)" fill="#ff5757"/>
    <path id="linha1" d="M141-316.363v42.637h74.012V-359H141Zm73.333,0v41.854H141.679v-83.709h72.654Z" transform="translate(-18.294 -28)" fill="#ff5757"/>
    <path id="boneco" d="M193.926-347.274a6.671,6.671,0,0,1-2.426.693,3.3,3.3,0,0,0-1.733.485c-.659.485-.624.52.451,1.144,1.421.8,1.421,1.144,0,1.144-1.352,0-8.493.312-9.463.416-.381.069-2.981-.035-5.754-.208l-5.061-.277-3.328,1.421c-1.8.763-3.952,1.595-4.784,1.837a2.639,2.639,0,0,0-1.907,1.491c-.416,1.075-.312,2.808.243,3.154.589.347,2.634-.659,3.258-1.629a6.572,6.572,0,0,1,2.253-1.664c2.08-.936,6.413-1.872,7.487-1.629.763.208.832.381.832,2.149,0,1.629.1,1.976.693,2.115.381.1.693.277.693.381a7.971,7.971,0,0,1-1.8,2.5,5.249,5.249,0,0,0-1.144,1.7,7.543,7.543,0,0,1-1.213,1.941,1.5,1.5,0,0,0-.347,1.075,3.374,3.374,0,0,1-.347,1.491c-.416.832.173,3.016,1.248,4.437a27.411,27.411,0,0,0,3.952,3.432l3.12,2.288-.208,1.456a18.986,18.986,0,0,1-.52,2.461,39.419,39.419,0,0,0-.485,5.373,46.628,46.628,0,0,1-.416,5.026,4.522,4.522,0,0,0-.139,1.56c.069.485,0,.763-.139.624s-.52,0-.832.312c-.381.416-.451.589-.1.728.728.243.451,1.317-.485,1.733-.693.347-.867.624-.763,1.387.139,1.213,1.976,2.149,4.784,2.392,1.525.139,1.976.312,1.837.659-.1.277-.277.416-.451.312-.485-.312-1.491.763-1.283,1.352a1.041,1.041,0,0,0,1.872-.069c.416-1.629,2.842-2.115,7.557-1.456,4.784.659,4.645.589,4.888,1.907.312,1.664,1.144,1.837,3.466.693a5.457,5.457,0,0,1,2.808-.763,1.689,1.689,0,0,0,1.525-.485,9.734,9.734,0,0,1,1.768-1.213c1.421-.693,2.7-1.872,2.7-2.426,0-.451-.763-.832-1.664-.832a2.059,2.059,0,0,1-1.144-.555c-.555-.485-.8-.52-1.664-.173-1.733.728-3.085.347-3.986-1.179a3.236,3.236,0,0,1-.659-1.768,4.486,4.486,0,0,0-.208-1.733,52.742,52.742,0,0,1-.728-5.893c-.416-5.13-1.04-7.7-2.115-8.666a17,17,0,0,1-2.08-2.773,31.531,31.531,0,0,0-4.125-4.749c-1.491-1.456-2.6-2.738-2.392-2.877a.5.5,0,0,0,.208-.589c-.208-.624,4.125-3.709,5.234-3.709a7.926,7.926,0,0,1,2.634,1.8l2.011,1.8,1.629-.451c.867-.243,1.768-.485,1.976-.52.763-.069,6.794,7.106,9.082,10.85,1.179,1.941,1.7,2.461,2.322,2.461.451,0,.936.139,1.04.347a.976.976,0,0,0,.728.347c.347,0,.485-.451.485-1.837,0-2.08-.208-2.5-1.387-2.842-1.352-.416-1.7-.8-4.09-4.506a45.626,45.626,0,0,0-3.882-5.234,37.608,37.608,0,0,1-5.2-7.591,5.512,5.512,0,0,0-1.04-1.491c-.451-.416-.451-.485,0-.659a7.248,7.248,0,0,0,3.05-3.709c.485-1.7-.069-3.12-1.629-4.472C197.289-348.175,195.833-348.245,193.926-347.274Zm-7.175,33.485c1.109,1.075,2.219,2.184,2.53,2.427.52.485,1.075,2.461,1.525,5.685.139.867.451,2.322.693,3.293.243.936.555,2.392.659,3.189l.208,1.491h-9.983l-.416-1.04a4.308,4.308,0,0,1-.243-2.08c.173-.763.069-1.109-.381-1.352-.555-.312-.555-.381,0-.8.485-.347.693-1.352.971-4.61.347-4.472,1.283-8.146,2.011-8.146A8.594,8.594,0,0,1,186.751-313.789Z" transform="translate(-30.49 -25.514)" fill="#ff5757"/>
  </g>
</svg>
