<svg xmlns="http://www.w3.org/2000/svg" width="53.936" height="57.517" viewBox="0 0 53.936 57.517">
  <g id="SBlife" transform="translate(-118.546 387)">
    <path id="linha2" d="M129-344.032v26.968h53.936V-371H129Zm53.488,0v26.52l-26.453-.045-26.476-.067-.067-26.185c-.022-14.413,0-26.319.067-26.476.067-.2,5.6-.269,26.52-.269h26.408Z" transform="translate(-10.454 -12.419)"/>
    <path id="linha1" d="M141-331.473v27.527h47.784V-359H141Zm47.346,0v27.022H141.438v-54.045h46.908Z" transform="translate(-19.768 -28)"/>
    <path id="boneco" d="M181.786-347.514a4.308,4.308,0,0,1-1.567.448,2.129,2.129,0,0,0-1.119.313c-.425.313-.4.336.291.739.918.515.918.739,0,.739-.873,0-5.483.2-6.11.269-.246.045-1.925-.022-3.715-.134l-3.267-.179-2.148.918c-1.164.492-2.551,1.029-3.088,1.186a1.7,1.7,0,0,0-1.231.962c-.269.694-.2,1.813.157,2.037.38.224,1.7-.425,2.1-1.052a4.243,4.243,0,0,1,1.455-1.074,13.392,13.392,0,0,1,4.834-1.052c.492.134.537.246.537,1.388,0,1.052.067,1.276.448,1.365.246.067.448.179.448.246a5.147,5.147,0,0,1-1.164,1.611,3.388,3.388,0,0,0-.739,1.1,4.87,4.87,0,0,1-.783,1.253.969.969,0,0,0-.224.694,2.179,2.179,0,0,1-.224.962,3.657,3.657,0,0,0,.806,2.865,17.7,17.7,0,0,0,2.551,2.216l2.014,1.477-.134.94a12.258,12.258,0,0,1-.336,1.589,25.45,25.45,0,0,0-.313,3.469,30.1,30.1,0,0,1-.269,3.245,2.919,2.919,0,0,0-.09,1.007c.045.313,0,.492-.09.4s-.336,0-.537.2c-.246.269-.291.38-.067.47.47.157.291.85-.313,1.119-.448.224-.56.4-.492.9.09.783,1.276,1.388,3.088,1.544.985.09,1.276.2,1.186.425-.067.179-.179.269-.291.2-.313-.2-.962.492-.828.873a.672.672,0,0,0,1.209-.045c.269-1.052,1.835-1.365,4.879-.94,3.088.425,3,.38,3.156,1.231.2,1.074.739,1.186,2.238.448a3.523,3.523,0,0,1,1.813-.492,1.091,1.091,0,0,0,.985-.313,6.284,6.284,0,0,1,1.141-.783c.918-.448,1.746-1.208,1.746-1.567,0-.291-.492-.537-1.074-.537a1.329,1.329,0,0,1-.739-.358c-.358-.313-.515-.336-1.074-.112a1.841,1.841,0,0,1-2.574-.761,2.09,2.09,0,0,1-.425-1.141,2.9,2.9,0,0,0-.134-1.119,34.05,34.05,0,0,1-.47-3.8c-.269-3.312-.671-4.968-1.365-5.595a10.974,10.974,0,0,1-1.343-1.79,20.357,20.357,0,0,0-2.663-3.066c-.962-.94-1.678-1.768-1.544-1.857a.32.32,0,0,0,.134-.38c-.134-.4,2.663-2.395,3.379-2.395a5.117,5.117,0,0,1,1.7,1.164l1.3,1.164,1.052-.291c.56-.157,1.141-.313,1.276-.336.492-.045,4.386,4.588,5.864,7,.761,1.253,1.1,1.589,1.5,1.589.291,0,.6.09.671.224a.63.63,0,0,0,.47.224c.224,0,.313-.291.313-1.186,0-1.343-.134-1.611-.9-1.835-.873-.269-1.1-.515-2.641-2.909a29.455,29.455,0,0,0-2.507-3.379,24.282,24.282,0,0,1-3.357-4.9,3.558,3.558,0,0,0-.671-.962c-.291-.269-.291-.313,0-.425a4.679,4.679,0,0,0,1.969-2.395,2.629,2.629,0,0,0-1.052-2.887A2.491,2.491,0,0,0,181.786-347.514Zm-4.633,21.619c.716.694,1.432,1.41,1.634,1.567.336.313.694,1.589.985,3.67.09.559.291,1.5.448,2.126.157.6.358,1.544.425,2.059l.134.962h-6.445l-.269-.671a2.782,2.782,0,0,1-.157-1.343c.112-.492.045-.716-.246-.873-.358-.2-.358-.246,0-.515.313-.224.448-.873.627-2.977.224-2.887.828-5.259,1.3-5.259A5.549,5.549,0,0,1,177.153-325.894Z" transform="translate(-34.257 -30.311)"/>
  </g>
</svg>
