<svg xmlns="http://www.w3.org/2000/svg" width="32" height="32" viewBox="0 0 32 32">
  <path id="twitter" d="M31.88,6.836a11.453,11.453,0,0,1-3.232,1.121c.52-.107,1.288-1.25,1.595-1.714a7.788,7.788,0,0,0,1.076-2.379c.028-.068.05-.153-.006-.205a.16.16,0,0,0-.172.018A14.877,14.877,0,0,1,27.3,5.461a.229.229,0,0,1-.265-.085,3.541,3.541,0,0,0-.335-.418,6.723,6.723,0,0,0-1.86-1.384,5.461,5.461,0,0,0-2.853-.558,5.944,5.944,0,0,0-2.707.929A7.462,7.462,0,0,0,17.1,6.108a8.918,8.918,0,0,0-1.3,3.171,10.44,10.44,0,0,0-.07,3.347c.022.187.008.212-.131.187A19.547,19.547,0,0,1,2.4,4.663c-.154-.214-.238-.214-.364.016-1.553,2.826-.8,7.365,1.14,9.6.259.3.524.595.811.866a5.8,5.8,0,0,1-2.546-.866c-.154-.118-.231-.05-.245.161a5.867,5.867,0,0,0,.042.918A8.144,8.144,0,0,0,5.408,21.9a3.448,3.448,0,0,0,.846.313,6.242,6.242,0,0,1-2.5.095c-.182-.044-.252.067-.182.279a7.482,7.482,0,0,0,5.246,5.333c.238.051.476.051.714.119-.014.025-.028.025-.042.051C8.9,29.183,6.861,30,5.91,30.4a10.757,10.757,0,0,1-5.442.845c-.292-.052-.354-.049-.433,0s-.01.146.084.237c.37.3.748.561,1.133.816A16.272,16.272,0,0,0,4.89,34.064,16.99,16.99,0,0,0,23.7,28.725c3.853-4.65,5.2-11.061,5.2-17.481,0-.25.244-.388.39-.522a14.5,14.5,0,0,0,2.548-3.232A1.092,1.092,0,0,0,32,6.87V6.836C32,6.734,32.01,6.765,31.88,6.836Z" transform="translate(0 -2.999)" fill="#ff5757" fill-rule="evenodd"/>
</svg>
